<svg xmlns="http://www.w3.org/2000/svg" viewBox="0 0 1210 900" width="1210" height="900" font-family="-apple-system,'Segoe UI',Roboto,'Helvetica Neue',Arial,sans-serif" role="img"><title>Diagrama de clases del módulo Pedidos</title><defs><marker id="a" viewBox="0 0 10 10" refX="9" refY="5" markerWidth="7" markerHeight="7" orient="auto-start-reverse"><path d="M0,0 L10,5 L0,10 z" fill="#475569"/></marker><marker id="o" viewBox="0 0 10 10" refX="9" refY="5" markerWidth="8" markerHeight="8" orient="auto"><path d="M0,0 L10,5 L0,10" fill="none" stroke="#475569" stroke-width="1.4"/></marker><marker id="t" viewBox="0 0 12 12" refX="11" refY="6" markerWidth="10" markerHeight="10" orient="auto"><path d="M0,0 L11,6 L0,12 z" fill="#fff" stroke="#475569" stroke-width="1.2"/></marker></defs><rect width="100%" height="100%" fill="#FFFFFF"/><defs><marker id="d" viewBox="0 0 16 10" refX="1" refY="5" markerWidth="14" markerHeight="9" orient="auto"><path d="M1,5 L8,1 L15,5 L8,9 z" fill="#475569"/></marker></defs><text x="20" y="26" font-size="15" font-weight="700" fill="#1E293B" text-anchor="start">Diagrama de clases · módulo Pedidos (C4 nivel 4 – código)</text><text x="20" y="45" font-size="11" font-weight="400" fill="#64748B" text-anchor="start">Clean Architecture: el caso de uso depende de interfaces del dominio; la infraestructura las implementa</text><rect x="15" y="62" width="225" height="825" fill="#EAF1FB" fill-opacity="0.35" stroke="#2F5FA7" stroke-opacity="0.35" stroke-dasharray="4 4"/><text x="127.5" y="80" font-size="11" font-weight="700" fill="#2F5FA7" text-anchor="middle">PRESENTACIÓN</text><rect x="245" y="62" width="265" height="825" fill="#E8F3EC" fill-opacity="0.35" stroke="#2F7D4F" stroke-opacity="0.35" stroke-dasharray="4 4"/><text x="377.5" y="80" font-size="11" font-weight="700" fill="#2F7D4F" text-anchor="middle">APLICACIÓN</text><rect x="525" y="62" width="365" height="825" fill="#FDF3E3" fill-opacity="0.35" stroke="#B7791F" stroke-opacity="0.35" stroke-dasharray="4 4"/><text x="707.5" y="80" font-size="11" font-weight="700" fill="#B7791F" text-anchor="middle">DOMINIO</text><rect x="905" y="62" width="290" height="825" fill="#F1ECF9" fill-opacity="0.35" stroke="#6D4AA8" stroke-opacity="0.35" stroke-dasharray="4 4"/><text x="1050.0" y="80" font-size="11" font-weight="700" fill="#6D4AA8" text-anchor="middle">INFRAESTRUCTURA</text><rect x="25" y="100" width="205" height="78" fill="#FFFFFF" stroke="#475569" stroke-width="1.3"/><line x1="25" y1="128" x2="230" y2="128" stroke="#475569" stroke-width="1"/><line x1="25" y1="153" x2="230" y2="153" stroke="#475569" stroke-width="1"/><text x="127.5" y="118" font-size="12" font-weight="700" fill="#1E293B" text-anchor="middle">OrderController</text><text x="33" y="143" font-size="10.5" font-weight="400" fill="#1E293B" text-anchor="start">- crearPedido: CrearPedidoUseCase</text><text x="33" y="168" font-size="10.5" font-weight="400" fill="#1E293B" text-anchor="start">+ crear(req, res): Promise&lt;void&gt;</text><rect x="255" y="100" width="245" height="108" fill="#FFFFFF" stroke="#475569" stroke-width="1.3"/><line x1="255" y1="128" x2="500" y2="128" stroke="#475569" stroke-width="1"/><line x1="255" y1="168" x2="500" y2="168" stroke="#475569" stroke-width="1"/><text x="377.5" y="118" font-size="12" font-weight="700" fill="#1E293B" text-anchor="middle">CrearPedidoUseCase</text><text x="263" y="143" font-size="10.5" font-weight="400" fill="#1E293B" text-anchor="start">- orderRepository: OrderRepository</text><text x="263" y="158" font-size="10.5" font-weight="400" fill="#1E293B" text-anchor="start">- paymentPort: PaymentPort</text><text x="263" y="183" font-size="10.5" font-weight="400" fill="#1E293B" text-anchor="start">+ ejecutar(cmd: CrearPedidoCommand)</text><text x="263" y="198" font-size="10.5" font-weight="400" fill="#1E293B" text-anchor="start">      : Promise&lt;string&gt;</text><rect x="255" y="300" width="170" height="105" fill="#FFFFFF" stroke="#475569" stroke-width="1.3"/><line x1="255" y1="340" x2="425" y2="340" stroke="#475569" stroke-width="1"/><line x1="255" y1="395" x2="425" y2="395" stroke="#475569" stroke-width="1"/><text x="340.0" y="315" font-size="9.5" font-weight="400" fill="#64748B" text-anchor="middle">«DTO»</text><text x="340.0" y="330" font-size="12" font-weight="700" fill="#1E293B" text-anchor="middle">CrearPedidoCommand</text><text x="263" y="355" font-size="10.5" font-weight="400" fill="#1E293B" text-anchor="start">+ clienteId: string</text><text x="263" y="370" font-size="10.5" font-weight="400" fill="#1E293B" text-anchor="start">+ items: ItemDTO[]</text><text x="263" y="385" font-size="10.5" font-weight="400" fill="#1E293B" text-anchor="start">+ tokenPago: string</text><rect x="540" y="100" width="280" height="195" fill="#FFFFFF" stroke="#475569" stroke-width="1.3"/><line x1="540" y1="140" x2="820" y2="140" stroke="#475569" stroke-width="1"/><line x1="540" y1="225" x2="820" y2="225" stroke="#475569" stroke-width="1"/><text x="680.0" y="115" font-size="9.5" font-weight="400" fill="#64748B" text-anchor="middle">«entity»</text><text x="680.0" y="130" font-size="12" font-weight="700" fill="#1E293B" text-anchor="middle">Pedido</text><text x="548" y="155" font-size="10.5" font-weight="400" fill="#1E293B" text-anchor="start">- id: string</text><text x="548" y="170" font-size="10.5" font-weight="400" fill="#1E293B" text-anchor="start">- clienteId: string</text><text x="548" y="185" font-size="10.5" font-weight="400" fill="#1E293B" text-anchor="start">- items: ItemPedido[]</text><text x="548" y="200" font-size="10.5" font-weight="400" fill="#1E293B" text-anchor="start">- estado: EstadoPedido</text><text x="548" y="215" font-size="10.5" font-weight="400" fill="#1E293B" text-anchor="start">- autorizacion?: string</text><text x="548" y="240" font-size="10.5" font-weight="400" fill="#1E293B" text-anchor="start">+ crear(clienteId, items): Pedido  {static}</text><text x="548" y="255" font-size="10.5" font-weight="400" fill="#1E293B" text-anchor="start">+ total(): number</text><text x="548" y="270" font-size="10.5" font-weight="400" fill="#1E293B" text-anchor="start">+ marcarPagado(autorizacion): void</text><text x="548" y="285" font-size="10.5" font-weight="400" fill="#1E293B" text-anchor="start">+ cancelar(): void</text><rect x="540" y="355" width="165" height="120" fill="#FFFFFF" stroke="#475569" stroke-width="1.3"/><line x1="540" y1="395" x2="705" y2="395" stroke="#475569" stroke-width="1"/><line x1="540" y1="450" x2="705" y2="450" stroke="#475569" stroke-width="1"/><text x="622.5" y="370" font-size="9.5" font-weight="400" fill="#64748B" text-anchor="middle">«value object»</text><text x="622.5" y="385" font-size="12" font-weight="700" fill="#1E293B" text-anchor="middle">ItemPedido</text><text x="548" y="410" font-size="10.5" font-weight="400" fill="#1E293B" text-anchor="start">+ productoId: string</text><text x="548" y="425" font-size="10.5" font-weight="400" fill="#1E293B" text-anchor="start">+ cantidad: number</text><text x="548" y="440" font-size="10.5" font-weight="400" fill="#1E293B" text-anchor="start">+ precioUnitario: number</text><text x="548" y="465" font-size="10.5" font-weight="400" fill="#1E293B" text-anchor="start">+ subtotal(): number</text><rect x="735" y="355" width="140" height="135" fill="#FFFFFF" stroke="#475569" stroke-width="1.3"/><line x1="735" y1="395" x2="875" y2="395" stroke="#475569" stroke-width="1"/><line x1="735" y1="480" x2="875" y2="480" stroke="#475569" stroke-width="1"/><text x="805.0" y="370" font-size="9.5" font-weight="400" fill="#64748B" text-anchor="middle">«enumeration»</text><text x="805.0" y="385" font-size="12" font-weight="700" fill="#1E293B" text-anchor="middle">EstadoPedido</text><text x="743" y="410" font-size="10.5" font-weight="400" fill="#1E293B" text-anchor="start">PENDIENTE</text><text x="743" y="425" font-size="10.5" font-weight="400" fill="#1E293B" text-anchor="start">PAGADO</text><text x="743" y="440" font-size="10.5" font-weight="400" fill="#1E293B" text-anchor="start">DESPACHADO</text><text x="743" y="455" font-size="10.5" font-weight="400" fill="#1E293B" text-anchor="start">ENTREGADO</text><text x="743" y="470" font-size="10.5" font-weight="400" fill="#1E293B" text-anchor="start">CANCELADO</text><rect x="540" y="545" width="335" height="90" fill="#FFFFFF" stroke="#475569" stroke-width="1.3"/><line x1="540" y1="585" x2="875" y2="585" stroke="#475569" stroke-width="1"/><line x1="540" y1="595" x2="875" y2="595" stroke="#475569" stroke-width="1"/><text x="707.5" y="560" font-size="9.5" font-weight="400" fill="#64748B" text-anchor="middle">«interface»</text><text x="707.5" y="575" font-size="12" font-weight="700" fill="#1E293B" text-anchor="middle" font-style="italic">OrderRepository</text><text x="548" y="610" font-size="10.5" font-weight="400" fill="#1E293B" text-anchor="start">+ guardar(pedido: Pedido): Promise&lt;void&gt;</text><text x="548" y="625" font-size="10.5" font-weight="400" fill="#1E293B" text-anchor="start">+ buscarPorId(id: string): Promise&lt;Pedido | null&gt;</text><rect x="540" y="650" width="260" height="90" fill="#FFFFFF" stroke="#475569" stroke-width="1.3"/><line x1="540" y1="690" x2="800" y2="690" stroke="#475569" stroke-width="1"/><line x1="540" y1="700" x2="800" y2="700" stroke="#475569" stroke-width="1"/><text x="670.0" y="665" font-size="9.5" font-weight="400" fill="#64748B" text-anchor="middle">«interface»</text><text x="670.0" y="680" font-size="12" font-weight="700" fill="#1E293B" text-anchor="middle" font-style="italic">PaymentPort</text><text x="548" y="715" font-size="10.5" font-weight="400" fill="#1E293B" text-anchor="start">+ cobrar(monto: number, token: string)</text><text x="548" y="730" font-size="10.5" font-weight="400" fill="#1E293B" text-anchor="start">      : Promise&lt;ResultadoCobro&gt;</text><rect x="540" y="770" width="260" height="90" fill="#FFFFFF" stroke="#475569" stroke-width="1.3"/><line x1="540" y1="810" x2="800" y2="810" stroke="#475569" stroke-width="1"/><line x1="540" y1="850" x2="800" y2="850" stroke="#475569" stroke-width="1"/><text x="670.0" y="785" font-size="9.5" font-weight="400" fill="#64748B" text-anchor="middle">«DTO»</text><text x="670.0" y="800" font-size="12" font-weight="700" fill="#1E293B" text-anchor="middle">ResultadoCobro</text><text x="548" y="825" font-size="10.5" font-weight="400" fill="#1E293B" text-anchor="start">+ aprobado: boolean · autorizacion: string</text><text x="548" y="840" font-size="10.5" font-weight="400" fill="#1E293B" text-anchor="start">+ motivoRechazo?: string</text><rect x="915" y="545" width="270" height="93" fill="#FFFFFF" stroke="#475569" stroke-width="1.3"/><line x1="915" y1="573" x2="1185" y2="573" stroke="#475569" stroke-width="1"/><line x1="915" y1="598" x2="1185" y2="598" stroke="#475569" stroke-width="1"/><text x="1050.0" y="563" font-size="12" font-weight="700" fill="#1E293B" text-anchor="middle">PostgresOrderRepository</text><text x="923" y="588" font-size="10.5" font-weight="400" fill="#1E293B" text-anchor="start">- db: Pool</text><text x="923" y="613" font-size="10.5" font-weight="400" fill="#1E293B" text-anchor="start">+ guardar(pedido): Promise&lt;void&gt;</text><text x="923" y="628" font-size="10.5" font-weight="400" fill="#1E293B" text-anchor="start">+ buscarPorId(id): Promise&lt;Pedido | null&gt;</text><rect x="915" y="660" width="270" height="78" fill="#FFFFFF" stroke="#475569" stroke-width="1.3"/><line x1="915" y1="688" x2="1185" y2="688" stroke="#475569" stroke-width="1"/><line x1="915" y1="713" x2="1185" y2="713" stroke="#475569" stroke-width="1"/><text x="1050.0" y="678" font-size="12" font-weight="700" fill="#1E293B" text-anchor="middle">StripePaymentAdapter</text><text x="923" y="703" font-size="10.5" font-weight="400" fill="#1E293B" text-anchor="start">- cliente: Stripe (SDK)</text><text x="923" y="728" font-size="10.5" font-weight="400" fill="#1E293B" text-anchor="start">+ cobrar(monto, token): Promise&lt;ResultadoCobro&gt;</text><rect x="915" y="760" width="270" height="78" fill="#FFFFFF" stroke="#475569" stroke-width="1.3"/><line x1="915" y1="788" x2="1185" y2="788" stroke="#475569" stroke-width="1"/><line x1="915" y1="813" x2="1185" y2="813" stroke="#475569" stroke-width="1"/><text x="1050.0" y="778" font-size="12" font-weight="700" fill="#1E293B" text-anchor="middle">PayPalPaymentAdapter</text><text x="923" y="803" font-size="10.5" font-weight="400" fill="#1E293B" text-anchor="start">- cliente: PayPal (SDK)</text><text x="923" y="828" font-size="10.5" font-weight="400" fill="#1E293B" text-anchor="start">+ cobrar(monto, token): Promise&lt;ResultadoCobro&gt;</text><path d="M230,140 L254,140" fill="none" stroke="#475569" stroke-width="1.4" marker-end="url(#o)"/><path d="M120,178 L120,352.5 L254,352.5" fill="none" stroke="#475569" stroke-width="1.4" stroke-dasharray="5 4" marker-end="url(#o)"/><text x="160" y="346.5" font-size="9.5" fill="#64748B" text-anchor="middle" paint-order="stroke" stroke="#fff" stroke-width="3">«crea»</text><path d="M500,130 L539,130" fill="none" stroke="#475569" stroke-width="1.4" stroke-dasharray="5 4" marker-end="url(#o)"/><text x="520" y="124" font-size="9.5" fill="#64748B" text-anchor="middle" paint-order="stroke" stroke="#fff" stroke-width="3">«crea»</text><path d="M300,208 L300,299" fill="none" stroke="#475569" stroke-width="1.4" stroke-dasharray="5 4" marker-end="url(#o)"/><text x="322" y="280" font-size="9.5" fill="#64748B" text-anchor="middle" paint-order="stroke" stroke="#fff" stroke-width="3">«usa»</text><path d="M480,208 L480,575 L539,575" fill="none" stroke="#475569" stroke-width="1.4" marker-end="url(#o)"/><path d="M450,208 L450,680 L539,680" fill="none" stroke="#475569" stroke-width="1.4" marker-end="url(#o)"/><path d="M600,295 L600,354" fill="none" stroke="#475569" stroke-width="1.4" marker-start="url(#d)" marker-end="url(#o)"/><text x="612" y="349" font-size="9.5" font-weight="400" fill="#64748B" text-anchor="start">1..*</text><path d="M790,295 L790,354" fill="none" stroke="#475569" stroke-width="1.4" marker-end="url(#o)"/><path d="M670.0,740 L670.0,769" fill="none" stroke="#475569" stroke-width="1.4" stroke-dasharray="5 4" marker-end="url(#o)"/><text x="700.0" y="752" font-size="9.5" fill="#64748B" text-anchor="middle" paint-order="stroke" stroke="#fff" stroke-width="3">«retorna»</text><path d="M915,590 L876,590" fill="none" stroke="#475569" stroke-width="1.4" stroke-dasharray="5 4" marker-end="url(#t)"/><path d="M915,690 L801,690" fill="none" stroke="#475569" stroke-width="1.4" stroke-dasharray="5 4" marker-end="url(#t)"/><path d="M915,790 L850,790 L850,732 L801,732" fill="none" stroke="#475569" stroke-width="1.4" stroke-dasharray="5 4" marker-end="url(#t)"/></svg>