<svg xmlns="http://www.w3.org/2000/svg" viewBox="0 0 980 365" width="980" height="365" font-family="-apple-system,'Segoe UI',Roboto,'Helvetica Neue',Arial,sans-serif" role="img"><title>Inversión de dependencias</title><defs><marker id="a" viewBox="0 0 10 10" refX="9" refY="5" markerWidth="7" markerHeight="7" orient="auto-start-reverse"><path d="M0,0 L10,5 L0,10 z" fill="#475569"/></marker><marker id="o" viewBox="0 0 10 10" refX="9" refY="5" markerWidth="8" markerHeight="8" orient="auto"><path d="M0,0 L10,5 L0,10" fill="none" stroke="#475569" stroke-width="1.4"/></marker><marker id="t" viewBox="0 0 12 12" refX="11" refY="6" markerWidth="10" markerHeight="10" orient="auto"><path d="M0,0 L11,6 L0,12 z" fill="#fff" stroke="#475569" stroke-width="1.2"/></marker></defs><rect width="100%" height="100%" fill="#FFFFFF"/><defs><marker id="d" viewBox="0 0 16 10" refX="1" refY="5" markerWidth="14" markerHeight="9" orient="auto"><path d="M1,5 L8,1 L15,5 L8,9 z" fill="#475569"/></marker></defs><text x="20" y="26" font-size="15" font-weight="700" fill="#1E293B" text-anchor="start">Principio de inversión de dependencias (DIP)</text><text x="20" y="45" font-size="11" font-weight="400" fill="#64748B" text-anchor="start">Antes: el caso de uso depende de clases concretas · Después: ambos dependen de una abstracción</text><rect x="15" y="62" width="430" height="290" rx="6" fill="#FBEDEC" stroke="#B4443B" stroke-width="1.4" stroke-dasharray="5 4"/><text x="30" y="82" font-size="11" font-weight="700" fill="#B4443B" text-anchor="start">ANTES · acoplado a la tecnología</text><rect x="130" y="100" width="200" height="63" fill="#FFFFFF" stroke="#475569" stroke-width="1.3"/><line x1="130" y1="128" x2="330" y2="128" stroke="#475569" stroke-width="1"/><line x1="130" y1="138" x2="330" y2="138" stroke="#475569" stroke-width="1"/><text x="230.0" y="118" font-size="12" font-weight="700" fill="#1E293B" text-anchor="middle">CrearPedidoUseCase</text><text x="138" y="153" font-size="10.5" font-weight="400" fill="#1E293B" text-anchor="start">+ ejecutar(cmd)</text><rect x="35" y="250" width="190" height="63" fill="#FFFFFF" stroke="#475569" stroke-width="1.3"/><line x1="35" y1="278" x2="225" y2="278" stroke="#475569" stroke-width="1"/><line x1="35" y1="288" x2="225" y2="288" stroke="#475569" stroke-width="1"/><text x="130.0" y="268" font-size="12" font-weight="700" fill="#1E293B" text-anchor="middle">PostgresOrderRepository</text><text x="43" y="303" font-size="10.5" font-weight="400" fill="#1E293B" text-anchor="start">+ guardar(pedido)</text><rect x="245" y="250" width="185" height="63" fill="#FFFFFF" stroke="#475569" stroke-width="1.3"/><line x1="245" y1="278" x2="430" y2="278" stroke="#475569" stroke-width="1"/><line x1="245" y1="288" x2="430" y2="288" stroke="#475569" stroke-width="1"/><text x="337.5" y="268" font-size="12" font-weight="700" fill="#1E293B" text-anchor="middle">StripePaymentAdapter</text><text x="253" y="303" font-size="10.5" font-weight="400" fill="#1E293B" text-anchor="start">+ cobrar(monto, token)</text><path d="M180,163 L180,205 L130.0,205 L130.0,249" fill="none" stroke="#475569" stroke-width="1.4" marker-end="url(#o)"/><text x="150" y="196" font-size="9.5" fill="#64748B" text-anchor="middle" paint-order="stroke" stroke="#fff" stroke-width="3">new …</text><path d="M280,163 L280,205 L337.5,205 L337.5,249" fill="none" stroke="#475569" stroke-width="1.4" marker-end="url(#o)"/><text x="315" y="196" font-size="9.5" fill="#64748B" text-anchor="middle" paint-order="stroke" stroke="#fff" stroke-width="3">new …</text><rect x="465" y="62" width="500" height="290" rx="6" fill="#E8F3EC" stroke="#2F7D4F" stroke-width="1.4" stroke-dasharray="5 4"/><text x="480" y="82" font-size="11" font-weight="700" fill="#2F7D4F" text-anchor="start">DESPUÉS · depende de interfaces del dominio</text><rect x="625" y="92" width="190" height="63" fill="#FFFFFF" stroke="#475569" stroke-width="1.3"/><line x1="625" y1="120" x2="815" y2="120" stroke="#475569" stroke-width="1"/><line x1="625" y1="130" x2="815" y2="130" stroke="#475569" stroke-width="1"/><text x="720.0" y="110" font-size="12" font-weight="700" fill="#1E293B" text-anchor="middle">CrearPedidoUseCase</text><text x="633" y="145" font-size="10.5" font-weight="400" fill="#1E293B" text-anchor="start">+ ejecutar(cmd)</text><rect x="485" y="182" width="200" height="75" fill="#FDF3E3" stroke="#B7791F" stroke-width="1.3"/><line x1="485" y1="222" x2="685" y2="222" stroke="#B7791F" stroke-width="1"/><line x1="485" y1="232" x2="685" y2="232" stroke="#B7791F" stroke-width="1"/><text x="585.0" y="197" font-size="9.5" font-weight="400" fill="#64748B" text-anchor="middle">«interface»</text><text x="585.0" y="212" font-size="12" font-weight="700" fill="#1E293B" text-anchor="middle" font-style="italic">OrderRepository</text><text x="493" y="247" font-size="10.5" font-weight="400" fill="#1E293B" text-anchor="start">+ guardar(pedido)</text><rect x="745" y="182" width="200" height="75" fill="#FDF3E3" stroke="#B7791F" stroke-width="1.3"/><line x1="745" y1="222" x2="945" y2="222" stroke="#B7791F" stroke-width="1"/><line x1="745" y1="232" x2="945" y2="232" stroke="#B7791F" stroke-width="1"/><text x="845.0" y="197" font-size="9.5" font-weight="400" fill="#64748B" text-anchor="middle">«interface»</text><text x="845.0" y="212" font-size="12" font-weight="700" fill="#1E293B" text-anchor="middle" font-style="italic">PaymentPort</text><text x="753" y="247" font-size="10.5" font-weight="400" fill="#1E293B" text-anchor="start">+ cobrar(monto, token)</text><rect x="485" y="285" width="200" height="48" fill="#FFFFFF" stroke="#475569" stroke-width="1.3"/><line x1="485" y1="313" x2="685" y2="313" stroke="#475569" stroke-width="1"/><line x1="485" y1="323" x2="685" y2="323" stroke="#475569" stroke-width="1"/><text x="585.0" y="303" font-size="12" font-weight="700" fill="#1E293B" text-anchor="middle">PostgresOrderRepository</text><rect x="745" y="285" width="200" height="48" fill="#FFFFFF" stroke="#475569" stroke-width="1.3"/><line x1="745" y1="313" x2="945" y2="313" stroke="#475569" stroke-width="1"/><line x1="745" y1="323" x2="945" y2="323" stroke="#475569" stroke-width="1"/><text x="845.0" y="303" font-size="12" font-weight="700" fill="#1E293B" text-anchor="middle">StripePaymentAdapter</text><path d="M680,155 L680,166 L585.0,166 L585.0,181" fill="none" stroke="#475569" stroke-width="1.4" marker-end="url(#o)"/><path d="M760,155 L760,166 L845.0,166 L845.0,181" fill="none" stroke="#475569" stroke-width="1.4" marker-end="url(#o)"/><path d="M585.0,285 L585.0,258" fill="none" stroke="#475569" stroke-width="1.4" stroke-dasharray="5 4" marker-end="url(#t)"/><path d="M845.0,285 L845.0,258" fill="none" stroke="#475569" stroke-width="1.4" stroke-dasharray="5 4" marker-end="url(#t)"/></svg>